<svg xmlns="http://www.w3.org/2000/svg" width="24" height="24" fill="white" viewBox="0 0 16 16">
  <path d="M5.255 5.786a.237.237 0 0 0 .241.247h.825c.138 0 .248-.113.266-.25.09-.656.54-1.06 1.342-1.06.686 0 1.314.343 1.314 1.168 0 .635-.374.927-.965 1.371-.673.498-1.206 1.07-1.168 1.987l.003.217a.25.25 0 0 0 .25.246h.811a.25.25 0 0 0 .25-.25v-.105c0-.718.273-.927 1.01-1.486.609-.455 1.244-.977 1.244-2.056 0-1.511-1.276-2.241-2.673-2.241-1.267 0-2.655.59-2.75 2.222z"/>
  <path d="M7.001 11a1 1 0 1 0 0 2 1 1 0 0 0 0-2z"/>
</svg>